<svg width="542" height="182" viewBox="0 0 542 182" fill="none" xmlns="http://www.w3.org/2000/svg">
<g filter="url(#filter0_d_2_522)">
<rect x="20" y="17" width="498" height="138" rx="20" fill="white"/>
</g>
<path d="M62.218 87.926L60.118 92.924C59.798 93.688 60.156 94.568 60.92 94.888C61.684 95.208 62.564 94.85 62.884 94.086L64.984 89.088C65.304 88.324 64.946 87.444 64.182 87.124C63.418 86.804 62.538 87.162 62.218 87.926ZM78.218 87.926L76.118 92.924C75.798 93.688 76.156 94.568 76.92 94.888C77.684 95.208 78.564 94.85 78.884 94.086L80.984 89.088C81.304 88.324 80.946 87.444 80.182 87.124C79.418 86.804 78.538 87.162 78.218 87.926ZM70.218 85.926L68.118 90.924C67.798 91.688 68.156 92.568 68.92 92.888C69.684 93.208 70.564 92.85 70.884 92.086L72.984 87.088C73.304 86.324 72.946 85.444 72.182 85.124C71.418 84.804 70.538 85.162 70.218 85.926Z" fill="#66AFEB"/>
<path d="M62 83C57.582 83 54 79.418 54 75C54 70.582 57.582 67 62 67C62.834 67 63.636 67.128 64.392 67.364C65.518 63.68 68.946 61 73 61C77.97 61 82 65.03 82 70C82 70.47 81.964 70.93 81.894 71.38C82.55 71.134 83.258 71 84 71C87.314 71 90 73.686 90 77C90 80.314 87.314 83 84 83H62Z" fill="url(#paint0_linear_2_522)"/>
<path d="M64 70C64 74.97 68.03 79 73 79C77.502 79 81.23 75.696 81.894 71.38C82.55 71.134 83.258 71 84 71C87.314 71 90 73.686 90 77C90 80.314 87.314 83 84 83H62C57.582 83 54 79.418 54 75C54 70.582 57.582 67 62 67C62.834 67 63.636 67.128 64.392 67.364C64.136 68.198 64 69.082 64 70Z" fill="url(#paint1_radial_2_522)"/>
<path d="M151 79C155.418 79 159 75.4183 159 71C159 66.5817 155.418 63 151 63C146.582 63 143 66.5817 143 71C143 75.4183 146.582 79 151 79Z" fill="url(#paint2_linear_2_522)"/>
<path d="M149.96 56.46L150.48 59.414C150.828 61.384 147.872 61.904 147.526 59.934L147.006 56.98C146.658 55.01 149.614 54.49 149.96 56.46ZM160.546 59.982L158.826 62.44C157.678 64.078 155.222 62.358 156.368 60.72L158.088 58.262C159.236 56.624 161.692 58.344 160.546 59.982ZM139.984 61.454L142.442 63.174C144.08 64.322 142.36 66.778 140.722 65.632L138.264 63.912C136.626 62.764 138.346 60.308 139.984 61.454ZM161.282 76.366L163.74 78.086C165.378 79.234 163.658 81.69 162.02 80.544L159.562 78.824C157.924 77.676 159.644 75.22 161.282 76.366ZM165.542 69.958L162.588 70.478C160.618 70.826 160.098 67.87 162.068 67.524L165.022 67.004C166.992 66.656 167.512 69.612 165.542 69.958Z" fill="#FFB300"/>
<path d="M133.218 93.926L131.118 98.924C130.798 99.688 131.156 100.568 131.92 100.888C132.684 101.208 133.564 100.85 133.884 100.086L135.984 95.088C136.304 94.324 135.946 93.444 135.182 93.124C134.418 92.804 133.538 93.162 133.218 93.926ZM143.218 91.926L141.118 96.924C140.798 97.688 141.156 98.568 141.92 98.888C142.684 99.208 143.564 98.85 143.884 98.086L145.984 93.088C146.304 92.324 145.946 91.444 145.182 91.124C144.418 90.804 143.538 91.162 143.218 91.926Z" fill="#66AFEB"/>
<path d="M131 89C126.582 89 123 85.418 123 81C123 76.582 126.582 73 131 73C131.834 73 132.636 73.128 133.392 73.364C134.518 69.68 137.946 67 142 67C146.97 67 151 71.03 151 76C151 76.47 150.964 76.93 150.894 77.38C151.55 77.134 152.258 77 153 77C156.314 77 159 79.686 159 83C159 86.314 156.314 89 153 89H131Z" fill="url(#paint3_linear_2_522)"/>
<path d="M133 76C133 80.97 137.03 85 142 85C146.502 85 150.23 81.696 150.894 77.38C151.55 77.134 152.258 77 153 77C156.314 77 159 79.686 159 83C159 86.314 156.314 89 153 89H131C126.582 89 123 85.418 123 81C123 76.582 126.582 73 131 73C131.834 73 132.636 73.128 133.392 73.364C133.136 74.198 133 75.082 133 76Z" fill="url(#paint4_radial_2_522)"/>
<path d="M266.218 87.926L264.118 92.924C263.798 93.688 264.156 94.568 264.92 94.888C265.684 95.208 266.564 94.85 266.884 94.086L268.984 89.088C269.304 88.324 268.946 87.444 268.182 87.124C267.418 86.804 266.538 87.162 266.218 87.926ZM276.218 85.926L274.118 90.924C273.798 91.688 274.156 92.568 274.92 92.888C275.684 93.208 276.564 92.85 276.884 92.086L278.984 87.088C279.304 86.324 278.946 85.444 278.182 85.124C277.418 84.804 276.538 85.162 276.218 85.926Z" fill="#66AFEB"/>
<path d="M264 83C259.582 83 256 79.418 256 75C256 70.582 259.582 67 264 67C264.834 67 265.636 67.128 266.392 67.364C267.518 63.68 270.946 61 275 61C279.97 61 284 65.03 284 70C284 70.47 283.964 70.93 283.894 71.38C284.55 71.134 285.258 71 286 71C289.314 71 292 73.686 292 77C292 80.314 289.314 83 286 83H264Z" fill="url(#paint5_linear_2_522)"/>
<path d="M266 70C266 74.97 270.03 79 275 79C279.502 79 283.23 75.696 283.894 71.38C284.55 71.134 285.258 71 286 71C289.314 71 292 73.686 292 77C292 80.314 289.314 83 286 83H264C259.582 83 256 79.418 256 75C256 70.582 259.582 67 264 67C264.834 67 265.636 67.128 266.392 67.364C266.136 68.198 266 69.082 266 70Z" fill="url(#paint6_radial_2_522)"/>
<path d="M56.596 121.132V123.778H55.658V122H49.064V123.778H48.126V121.132H48.546C49.0407 121.104 49.3767 120.74 49.554 120.04C49.7313 119.34 49.8527 118.36 49.918 117.1L50.016 114.636H55.448V121.132H56.596ZM50.828 117.156C50.7813 118.201 50.6927 119.065 50.562 119.746C50.4313 120.418 50.198 120.88 49.862 121.132H54.454V115.518H50.912L50.828 117.156ZM61.5711 122.07C60.8618 122.07 60.2225 121.911 59.6531 121.594C59.0838 121.267 58.6358 120.819 58.3091 120.25C57.9825 119.681 57.8191 119.037 57.8191 118.318C57.8191 117.599 57.9825 116.955 58.3091 116.386C58.6358 115.817 59.0838 115.373 59.6531 115.056C60.2225 114.739 60.8618 114.58 61.5711 114.58C62.2805 114.58 62.9198 114.739 63.4891 115.056C64.0585 115.373 64.5018 115.817 64.8191 116.386C65.1458 116.955 65.3091 117.599 65.3091 118.318C65.3091 119.037 65.1458 119.681 64.8191 120.25C64.5018 120.819 64.0585 121.267 63.4891 121.594C62.9198 121.911 62.2805 122.07 61.5711 122.07ZM61.5711 121.188C62.0938 121.188 62.5605 121.071 62.9711 120.838C63.3911 120.595 63.7178 120.255 63.9511 119.816C64.1845 119.377 64.3011 118.878 64.3011 118.318C64.3011 117.758 64.1845 117.259 63.9511 116.82C63.7178 116.381 63.3911 116.045 62.9711 115.812C62.5605 115.569 62.0938 115.448 61.5711 115.448C61.0485 115.448 60.5771 115.569 60.1571 115.812C59.7465 116.045 59.4198 116.381 59.1771 116.82C58.9438 117.259 58.8271 117.758 58.8271 118.318C58.8271 118.878 58.9438 119.377 59.1771 119.816C59.4198 120.255 59.7465 120.595 60.1571 120.838C60.5771 121.071 61.0485 121.188 61.5711 121.188ZM73.6278 118.724H72.0318V122H71.0378V118.724H69.4418L67.1878 122H65.9978L68.6438 118.206L66.2078 114.636H67.2858L69.4418 117.87H71.0378V114.636H72.0318V117.87H73.6278L75.7978 114.636H76.8758L74.4398 118.22L77.0858 122H75.8958L73.6278 118.724ZM85.9222 121.132V123.778H84.9842V122H78.3902V123.778H77.4522V121.132H77.8722C78.3668 121.104 78.7028 120.74 78.8802 120.04C79.0575 119.34 79.1788 118.36 79.2442 117.1L79.3422 114.636H84.7742V121.132H85.9222ZM80.1542 117.156C80.1075 118.201 80.0188 119.065 79.8882 119.746C79.7575 120.418 79.5242 120.88 79.1882 121.132H83.7802V115.518H80.2382L80.1542 117.156ZM91.0233 117.24C91.9473 117.249 92.6473 117.455 93.1233 117.856C93.6086 118.257 93.8513 118.836 93.8513 119.592C93.8513 120.376 93.59 120.978 93.0673 121.398C92.554 121.818 91.8073 122.023 90.8273 122.014L87.8593 122V114.636H88.8533V117.212L91.0233 117.24ZM90.7713 121.258C91.4526 121.267 91.966 121.132 92.3113 120.852C92.666 120.563 92.8433 120.143 92.8433 119.592C92.8433 119.051 92.6706 118.649 92.3253 118.388C91.98 118.127 91.462 117.991 90.7713 117.982L88.8533 117.954V121.23L90.7713 121.258Z" fill="black"/>
<path d="M114.414 114.636H115.408V117.898H120.042V114.636H121.036V122H120.042V118.752H115.408V122H114.414V114.636ZM130.301 118.626H124.141C124.197 119.391 124.491 120.012 125.023 120.488C125.555 120.955 126.227 121.188 127.039 121.188C127.497 121.188 127.917 121.109 128.299 120.95C128.682 120.782 129.013 120.539 129.293 120.222L129.853 120.866C129.527 121.258 129.116 121.557 128.621 121.762C128.136 121.967 127.599 122.07 127.011 122.07C126.255 122.07 125.583 121.911 124.995 121.594C124.417 121.267 123.964 120.819 123.637 120.25C123.311 119.681 123.147 119.037 123.147 118.318C123.147 117.599 123.301 116.955 123.609 116.386C123.927 115.817 124.356 115.373 124.897 115.056C125.448 114.739 126.064 114.58 126.745 114.58C127.427 114.58 128.038 114.739 128.579 115.056C129.121 115.373 129.545 115.817 129.853 116.386C130.161 116.946 130.315 117.59 130.315 118.318L130.301 118.626ZM126.745 115.434C126.036 115.434 125.439 115.663 124.953 116.12C124.477 116.568 124.207 117.156 124.141 117.884H129.363C129.298 117.156 129.023 116.568 128.537 116.12C128.061 115.663 127.464 115.434 126.745 115.434ZM136.086 114.818C136.767 114.818 137.374 114.972 137.906 115.28C138.447 115.579 138.867 116.003 139.166 116.554C139.464 117.095 139.614 117.716 139.614 118.416C139.614 119.135 139.455 119.774 139.138 120.334C138.83 120.885 138.396 121.314 137.836 121.622C137.276 121.93 136.632 122.084 135.904 122.084C134.681 122.084 133.734 121.655 133.062 120.796C132.39 119.937 132.054 118.752 132.054 117.24C132.054 115.663 132.352 114.454 132.95 113.614C133.556 112.774 134.499 112.205 135.778 111.906L139.082 111.15L139.25 112.06L136.142 112.774C135.087 113.007 134.312 113.423 133.818 114.02C133.323 114.608 133.052 115.481 133.006 116.638C133.304 116.069 133.72 115.625 134.252 115.308C134.784 114.981 135.395 114.818 136.086 114.818ZM135.932 121.258C136.445 121.258 136.902 121.141 137.304 120.908C137.714 120.665 138.032 120.329 138.256 119.9C138.489 119.471 138.606 118.985 138.606 118.444C138.606 117.903 138.494 117.427 138.27 117.016C138.046 116.605 137.728 116.288 137.318 116.064C136.916 115.831 136.454 115.714 135.932 115.714C135.409 115.714 134.942 115.831 134.532 116.064C134.13 116.288 133.813 116.605 133.58 117.016C133.356 117.427 133.244 117.903 133.244 118.444C133.244 118.985 133.356 119.471 133.58 119.9C133.813 120.329 134.135 120.665 134.546 120.908C134.956 121.141 135.418 121.258 135.932 121.258ZM144.782 122.07C144.073 122.07 143.433 121.911 142.864 121.594C142.295 121.267 141.847 120.819 141.52 120.25C141.193 119.681 141.03 119.037 141.03 118.318C141.03 117.599 141.193 116.955 141.52 116.386C141.847 115.817 142.295 115.373 142.864 115.056C143.433 114.739 144.073 114.58 144.782 114.58C145.491 114.58 146.131 114.739 146.7 115.056C147.269 115.373 147.713 115.817 148.03 116.386C148.357 116.955 148.52 117.599 148.52 118.318C148.52 119.037 148.357 119.681 148.03 120.25C147.713 120.819 147.269 121.267 146.7 121.594C146.131 121.911 145.491 122.07 144.782 122.07ZM144.782 121.188C145.305 121.188 145.771 121.071 146.182 120.838C146.602 120.595 146.929 120.255 147.162 119.816C147.395 119.377 147.512 118.878 147.512 118.318C147.512 117.758 147.395 117.259 147.162 116.82C146.929 116.381 146.602 116.045 146.182 115.812C145.771 115.569 145.305 115.448 144.782 115.448C144.259 115.448 143.788 115.569 143.368 115.812C142.957 116.045 142.631 116.381 142.388 116.82C142.155 117.259 142.038 117.758 142.038 118.318C142.038 118.878 142.155 119.377 142.388 119.816C142.631 120.255 142.957 120.595 143.368 120.838C143.788 121.071 144.259 121.188 144.782 121.188ZM156.623 114.636V122H155.629V115.518H152.101L152.003 117.338C151.929 118.869 151.751 120.045 151.471 120.866C151.191 121.687 150.692 122.098 149.973 122.098C149.777 122.098 149.539 122.061 149.259 121.986L149.329 121.132C149.497 121.169 149.614 121.188 149.679 121.188C150.062 121.188 150.351 121.011 150.547 120.656C150.743 120.301 150.874 119.863 150.939 119.34C151.005 118.817 151.061 118.127 151.107 117.268L151.233 114.636H156.623ZM162.613 117.24C163.537 117.249 164.237 117.455 164.713 117.856C165.198 118.257 165.441 118.836 165.441 119.592C165.441 120.376 165.18 120.978 164.657 121.398C164.144 121.818 163.397 122.023 162.417 122.014L159.449 122V114.636H160.443V117.212L162.613 117.24ZM162.361 121.258C163.042 121.267 163.556 121.132 163.901 120.852C164.256 120.563 164.433 120.143 164.433 119.592C164.433 119.051 164.26 118.649 163.915 118.388C163.57 118.127 163.052 117.991 162.361 117.982L160.443 117.954V121.23L162.361 121.258ZM177.502 114.636V122H167.338V114.636H168.332V121.132H171.944V114.636H172.938V121.132H176.508V114.636H177.502ZM183.378 122.07C182.668 122.07 182.029 121.911 181.46 121.594C180.89 121.267 180.442 120.819 180.116 120.25C179.789 119.681 179.626 119.037 179.626 118.318C179.626 117.599 179.789 116.955 180.116 116.386C180.442 115.817 180.89 115.373 181.46 115.056C182.029 114.739 182.668 114.58 183.378 114.58C184.087 114.58 184.726 114.739 185.296 115.056C185.865 115.373 186.308 115.817 186.626 116.386C186.952 116.955 187.116 117.599 187.116 118.318C187.116 119.037 186.952 119.681 186.626 120.25C186.308 120.819 185.865 121.267 185.296 121.594C184.726 121.911 184.087 122.07 183.378 122.07ZM183.378 121.188C183.9 121.188 184.367 121.071 184.778 120.838C185.198 120.595 185.524 120.255 185.758 119.816C185.991 119.377 186.108 118.878 186.108 118.318C186.108 117.758 185.991 117.259 185.758 116.82C185.524 116.381 185.198 116.045 184.778 115.812C184.367 115.569 183.9 115.448 183.378 115.448C182.855 115.448 182.384 115.569 181.964 115.812C181.553 116.045 181.226 116.381 180.984 116.82C180.75 117.259 180.634 117.758 180.634 118.318C180.634 118.878 180.75 119.377 180.984 119.816C181.226 120.255 181.553 120.595 181.964 120.838C182.384 121.071 182.855 121.188 183.378 121.188ZM189.24 114.636H190.234V120.488L195.148 114.636H196.03V122H195.036V116.148L190.136 122H189.24V114.636ZM192.586 113.572C191.952 113.572 191.448 113.413 191.074 113.096C190.701 112.779 190.51 112.331 190.5 111.752H191.214C191.224 112.116 191.354 112.41 191.606 112.634C191.858 112.849 192.185 112.956 192.586 112.956C192.988 112.956 193.314 112.849 193.566 112.634C193.828 112.41 193.963 112.116 193.972 111.752H194.686C194.677 112.331 194.481 112.779 194.098 113.096C193.725 113.413 193.221 113.572 192.586 113.572ZM121.596 138.132V140.778H120.658V139H114.064V140.778H113.126V138.132H113.546C114.041 138.104 114.377 137.74 114.554 137.04C114.731 136.34 114.853 135.36 114.918 134.1L115.016 131.636H120.448V138.132H121.596ZM115.828 134.156C115.781 135.201 115.693 136.065 115.562 136.746C115.431 137.418 115.198 137.88 114.862 138.132H119.454V132.518H115.912L115.828 134.156ZM126.571 139.07C125.862 139.07 125.222 138.911 124.653 138.594C124.084 138.267 123.636 137.819 123.309 137.25C122.982 136.681 122.819 136.037 122.819 135.318C122.819 134.599 122.982 133.955 123.309 133.386C123.636 132.817 124.084 132.373 124.653 132.056C125.222 131.739 125.862 131.58 126.571 131.58C127.28 131.58 127.92 131.739 128.489 132.056C129.058 132.373 129.502 132.817 129.819 133.386C130.146 133.955 130.309 134.599 130.309 135.318C130.309 136.037 130.146 136.681 129.819 137.25C129.502 137.819 129.058 138.267 128.489 138.594C127.92 138.911 127.28 139.07 126.571 139.07ZM126.571 138.188C127.094 138.188 127.56 138.071 127.971 137.838C128.391 137.595 128.718 137.255 128.951 136.816C129.184 136.377 129.301 135.878 129.301 135.318C129.301 134.758 129.184 134.259 128.951 133.82C128.718 133.381 128.391 133.045 127.971 132.812C127.56 132.569 127.094 132.448 126.571 132.448C126.048 132.448 125.577 132.569 125.157 132.812C124.746 133.045 124.42 133.381 124.177 133.82C123.944 134.259 123.827 134.758 123.827 135.318C123.827 135.878 123.944 136.377 124.177 136.816C124.42 137.255 124.746 137.595 125.157 137.838C125.577 138.071 126.048 138.188 126.571 138.188ZM138.628 135.724H137.032V139H136.038V135.724H134.442L132.188 139H130.998L133.644 135.206L131.208 131.636H132.286L134.442 134.87H136.038V131.636H137.032V134.87H138.628L140.798 131.636H141.876L139.44 135.22L142.086 139H140.896L138.628 135.724ZM150.922 138.132V140.778H149.984V139H143.39V140.778H142.452V138.132H142.872C143.367 138.104 143.703 137.74 143.88 137.04C144.058 136.34 144.179 135.36 144.244 134.1L144.342 131.636H149.774V138.132H150.922ZM145.154 134.156C145.108 135.201 145.019 136.065 144.888 136.746C144.758 137.418 144.524 137.88 144.188 138.132H148.78V132.518H145.238L145.154 134.156ZM156.023 134.24C156.947 134.249 157.647 134.455 158.123 134.856C158.609 135.257 158.851 135.836 158.851 136.592C158.851 137.376 158.59 137.978 158.067 138.398C157.554 138.818 156.807 139.023 155.827 139.014L152.859 139V131.636H153.853V134.212L156.023 134.24ZM155.771 138.258C156.453 138.267 156.966 138.132 157.311 137.852C157.666 137.563 157.843 137.143 157.843 136.592C157.843 136.051 157.671 135.649 157.325 135.388C156.98 135.127 156.462 134.991 155.771 134.982L153.853 134.954V138.23L155.771 138.258ZM164.412 131.636H165.406V137.488L170.32 131.636H171.202V139H170.208V133.148L165.308 139H164.412V131.636ZM180.795 139.07C180.067 139.07 179.413 138.911 178.835 138.594C178.265 138.277 177.817 137.833 177.491 137.264C177.164 136.685 177.001 136.037 177.001 135.318C177.001 134.599 177.164 133.955 177.491 133.386C177.817 132.817 178.265 132.373 178.835 132.056C179.413 131.739 180.067 131.58 180.795 131.58C181.429 131.58 181.994 131.706 182.489 131.958C182.993 132.201 183.389 132.56 183.679 133.036L182.937 133.54C182.694 133.176 182.386 132.905 182.013 132.728C181.639 132.541 181.233 132.448 180.795 132.448C180.263 132.448 179.782 132.569 179.353 132.812C178.933 133.045 178.601 133.381 178.359 133.82C178.125 134.259 178.009 134.758 178.009 135.318C178.009 135.887 178.125 136.391 178.359 136.83C178.601 137.259 178.933 137.595 179.353 137.838C179.782 138.071 180.263 138.188 180.795 138.188C181.233 138.188 181.639 138.099 182.013 137.922C182.386 137.745 182.694 137.474 182.937 137.11L183.679 137.614C183.389 138.09 182.993 138.454 182.489 138.706C181.985 138.949 181.42 139.07 180.795 139.07ZM188.518 139.07C187.809 139.07 187.17 138.911 186.6 138.594C186.031 138.267 185.583 137.819 185.256 137.25C184.93 136.681 184.766 136.037 184.766 135.318C184.766 134.599 184.93 133.955 185.256 133.386C185.583 132.817 186.031 132.373 186.6 132.056C187.17 131.739 187.809 131.58 188.518 131.58C189.228 131.58 189.867 131.739 190.436 132.056C191.006 132.373 191.449 132.817 191.766 133.386C192.093 133.955 192.256 134.599 192.256 135.318C192.256 136.037 192.093 136.681 191.766 137.25C191.449 137.819 191.006 138.267 190.436 138.594C189.867 138.911 189.228 139.07 188.518 139.07ZM188.518 138.188C189.041 138.188 189.508 138.071 189.918 137.838C190.338 137.595 190.665 137.255 190.898 136.816C191.132 136.377 191.248 135.878 191.248 135.318C191.248 134.758 191.132 134.259 190.898 133.82C190.665 133.381 190.338 133.045 189.918 132.812C189.508 132.569 189.041 132.448 188.518 132.448C187.996 132.448 187.524 132.569 187.104 132.812C186.694 133.045 186.367 133.381 186.124 133.82C185.891 134.259 185.774 134.758 185.774 135.318C185.774 135.878 185.891 136.377 186.124 136.816C186.367 137.255 186.694 137.595 187.104 137.838C187.524 138.071 187.996 138.188 188.518 138.188ZM200.36 131.636V139H199.366V132.518H195.838L195.74 134.338C195.665 135.869 195.488 137.045 195.208 137.866C194.928 138.687 194.428 139.098 193.71 139.098C193.514 139.098 193.276 139.061 192.996 138.986L193.066 138.132C193.234 138.169 193.35 138.188 193.416 138.188C193.798 138.188 194.088 138.011 194.284 137.656C194.48 137.301 194.61 136.863 194.676 136.34C194.741 135.817 194.797 135.127 194.844 134.268L194.97 131.636H200.36ZM203.185 131.636H204.179V134.898H208.813V131.636H209.807V139H208.813V135.752H204.179V139H203.185V131.636ZM220.305 138.132V140.848H219.367V139H212.633V131.636H213.627V138.132H218.121V131.636H219.115V138.132H220.305ZM228.643 135.626H222.483C222.539 136.391 222.833 137.012 223.365 137.488C223.897 137.955 224.569 138.188 225.381 138.188C225.838 138.188 226.258 138.109 226.641 137.95C227.024 137.782 227.355 137.539 227.635 137.222L228.195 137.866C227.868 138.258 227.458 138.557 226.963 138.762C226.478 138.967 225.941 139.07 225.353 139.07C224.597 139.07 223.925 138.911 223.337 138.594C222.758 138.267 222.306 137.819 221.979 137.25C221.652 136.681 221.489 136.037 221.489 135.318C221.489 134.599 221.643 133.955 221.951 133.386C222.268 132.817 222.698 132.373 223.239 132.056C223.79 131.739 224.406 131.58 225.087 131.58C225.768 131.58 226.38 131.739 226.921 132.056C227.462 132.373 227.887 132.817 228.195 133.386C228.503 133.946 228.657 134.59 228.657 135.318L228.643 135.626ZM225.087 132.434C224.378 132.434 223.78 132.663 223.295 133.12C222.819 133.568 222.548 134.156 222.483 134.884H227.705C227.64 134.156 227.364 133.568 226.879 133.12C226.403 132.663 225.806 132.434 225.087 132.434Z" fill="black"/>
<path d="M247.414 113.636H248.408V116.898H253.042V113.636H254.036V121H253.042V117.752H248.408V121H247.414V113.636ZM263.301 117.626H257.141C257.197 118.391 257.491 119.012 258.023 119.488C258.555 119.955 259.227 120.188 260.039 120.188C260.497 120.188 260.917 120.109 261.299 119.95C261.682 119.782 262.013 119.539 262.293 119.222L262.853 119.866C262.527 120.258 262.116 120.557 261.621 120.762C261.136 120.967 260.599 121.07 260.011 121.07C259.255 121.07 258.583 120.911 257.995 120.594C257.417 120.267 256.964 119.819 256.637 119.25C256.311 118.681 256.147 118.037 256.147 117.318C256.147 116.599 256.301 115.955 256.609 115.386C256.927 114.817 257.356 114.373 257.897 114.056C258.448 113.739 259.064 113.58 259.745 113.58C260.427 113.58 261.038 113.739 261.579 114.056C262.121 114.373 262.545 114.817 262.853 115.386C263.161 115.946 263.315 116.59 263.315 117.318L263.301 117.626ZM259.745 114.434C259.036 114.434 258.439 114.663 257.953 115.12C257.477 115.568 257.207 116.156 257.141 116.884H262.363C262.298 116.156 262.023 115.568 261.537 115.12C261.061 114.663 260.464 114.434 259.745 114.434ZM269.086 113.818C269.767 113.818 270.374 113.972 270.906 114.28C271.447 114.579 271.867 115.003 272.166 115.554C272.464 116.095 272.614 116.716 272.614 117.416C272.614 118.135 272.455 118.774 272.138 119.334C271.83 119.885 271.396 120.314 270.836 120.622C270.276 120.93 269.632 121.084 268.904 121.084C267.681 121.084 266.734 120.655 266.062 119.796C265.39 118.937 265.054 117.752 265.054 116.24C265.054 114.663 265.352 113.454 265.95 112.614C266.556 111.774 267.499 111.205 268.778 110.906L272.082 110.15L272.25 111.06L269.142 111.774C268.087 112.007 267.312 112.423 266.818 113.02C266.323 113.608 266.052 114.481 266.006 115.638C266.304 115.069 266.72 114.625 267.252 114.308C267.784 113.981 268.395 113.818 269.086 113.818ZM268.932 120.258C269.445 120.258 269.902 120.141 270.304 119.908C270.714 119.665 271.032 119.329 271.256 118.9C271.489 118.471 271.606 117.985 271.606 117.444C271.606 116.903 271.494 116.427 271.27 116.016C271.046 115.605 270.728 115.288 270.318 115.064C269.916 114.831 269.454 114.714 268.932 114.714C268.409 114.714 267.942 114.831 267.532 115.064C267.13 115.288 266.813 115.605 266.58 116.016C266.356 116.427 266.244 116.903 266.244 117.444C266.244 117.985 266.356 118.471 266.58 118.9C266.813 119.329 267.135 119.665 267.546 119.908C267.956 120.141 268.418 120.258 268.932 120.258ZM277.782 121.07C277.073 121.07 276.433 120.911 275.864 120.594C275.295 120.267 274.847 119.819 274.52 119.25C274.193 118.681 274.03 118.037 274.03 117.318C274.03 116.599 274.193 115.955 274.52 115.386C274.847 114.817 275.295 114.373 275.864 114.056C276.433 113.739 277.073 113.58 277.782 113.58C278.491 113.58 279.131 113.739 279.7 114.056C280.269 114.373 280.713 114.817 281.03 115.386C281.357 115.955 281.52 116.599 281.52 117.318C281.52 118.037 281.357 118.681 281.03 119.25C280.713 119.819 280.269 120.267 279.7 120.594C279.131 120.911 278.491 121.07 277.782 121.07ZM277.782 120.188C278.305 120.188 278.771 120.071 279.182 119.838C279.602 119.595 279.929 119.255 280.162 118.816C280.395 118.377 280.512 117.878 280.512 117.318C280.512 116.758 280.395 116.259 280.162 115.82C279.929 115.381 279.602 115.045 279.182 114.812C278.771 114.569 278.305 114.448 277.782 114.448C277.259 114.448 276.788 114.569 276.368 114.812C275.957 115.045 275.631 115.381 275.388 115.82C275.155 116.259 275.038 116.758 275.038 117.318C275.038 117.878 275.155 118.377 275.388 118.816C275.631 119.255 275.957 119.595 276.368 119.838C276.788 120.071 277.259 120.188 277.782 120.188ZM289.623 113.636V121H288.629V114.518H285.101L285.003 116.338C284.929 117.869 284.751 119.045 284.471 119.866C284.191 120.687 283.692 121.098 282.973 121.098C282.777 121.098 282.539 121.061 282.259 120.986L282.329 120.132C282.497 120.169 282.614 120.188 282.679 120.188C283.062 120.188 283.351 120.011 283.547 119.656C283.743 119.301 283.874 118.863 283.939 118.34C284.005 117.817 284.061 117.127 284.107 116.268L284.233 113.636H289.623ZM295.613 116.24C296.537 116.249 297.237 116.455 297.713 116.856C298.198 117.257 298.441 117.836 298.441 118.592C298.441 119.376 298.18 119.978 297.657 120.398C297.144 120.818 296.397 121.023 295.417 121.014L292.449 121V113.636H293.443V116.212L295.613 116.24ZM295.361 120.258C296.042 120.267 296.556 120.132 296.901 119.852C297.256 119.563 297.433 119.143 297.433 118.592C297.433 118.051 297.26 117.649 296.915 117.388C296.57 117.127 296.052 116.991 295.361 116.982L293.443 116.954V120.23L295.361 120.258ZM310.502 113.636V121H300.338V113.636H301.332V120.132H304.944V113.636H305.938V120.132H309.508V113.636H310.502ZM316.378 121.07C315.668 121.07 315.029 120.911 314.46 120.594C313.89 120.267 313.442 119.819 313.116 119.25C312.789 118.681 312.626 118.037 312.626 117.318C312.626 116.599 312.789 115.955 313.116 115.386C313.442 114.817 313.89 114.373 314.46 114.056C315.029 113.739 315.668 113.58 316.378 113.58C317.087 113.58 317.726 113.739 318.296 114.056C318.865 114.373 319.308 114.817 319.626 115.386C319.952 115.955 320.116 116.599 320.116 117.318C320.116 118.037 319.952 118.681 319.626 119.25C319.308 119.819 318.865 120.267 318.296 120.594C317.726 120.911 317.087 121.07 316.378 121.07ZM316.378 120.188C316.9 120.188 317.367 120.071 317.778 119.838C318.198 119.595 318.524 119.255 318.758 118.816C318.991 118.377 319.108 117.878 319.108 117.318C319.108 116.758 318.991 116.259 318.758 115.82C318.524 115.381 318.198 115.045 317.778 114.812C317.367 114.569 316.9 114.448 316.378 114.448C315.855 114.448 315.384 114.569 314.964 114.812C314.553 115.045 314.226 115.381 313.984 115.82C313.75 116.259 313.634 116.758 313.634 117.318C313.634 117.878 313.75 118.377 313.984 118.816C314.226 119.255 314.553 119.595 314.964 119.838C315.384 120.071 315.855 120.188 316.378 120.188ZM322.24 113.636H323.234V119.488L328.148 113.636H329.03V121H328.036V115.148L323.136 121H322.24V113.636ZM325.586 112.572C324.952 112.572 324.448 112.413 324.074 112.096C323.701 111.779 323.51 111.331 323.5 110.752H324.214C324.224 111.116 324.354 111.41 324.606 111.634C324.858 111.849 325.185 111.956 325.586 111.956C325.988 111.956 326.314 111.849 326.566 111.634C326.828 111.41 326.963 111.116 326.972 110.752H327.686C327.677 111.331 327.481 111.779 327.098 112.096C326.725 112.413 326.221 112.572 325.586 112.572ZM254.596 137.132V139.778H253.658V138H247.064V139.778H246.126V137.132H246.546C247.041 137.104 247.377 136.74 247.554 136.04C247.731 135.34 247.853 134.36 247.918 133.1L248.016 130.636H253.448V137.132H254.596ZM248.828 133.156C248.781 134.201 248.693 135.065 248.562 135.746C248.431 136.418 248.198 136.88 247.862 137.132H252.454V131.518H248.912L248.828 133.156ZM259.571 138.07C258.862 138.07 258.222 137.911 257.653 137.594C257.084 137.267 256.636 136.819 256.309 136.25C255.982 135.681 255.819 135.037 255.819 134.318C255.819 133.599 255.982 132.955 256.309 132.386C256.636 131.817 257.084 131.373 257.653 131.056C258.222 130.739 258.862 130.58 259.571 130.58C260.28 130.58 260.92 130.739 261.489 131.056C262.058 131.373 262.502 131.817 262.819 132.386C263.146 132.955 263.309 133.599 263.309 134.318C263.309 135.037 263.146 135.681 262.819 136.25C262.502 136.819 262.058 137.267 261.489 137.594C260.92 137.911 260.28 138.07 259.571 138.07ZM259.571 137.188C260.094 137.188 260.56 137.071 260.971 136.838C261.391 136.595 261.718 136.255 261.951 135.816C262.184 135.377 262.301 134.878 262.301 134.318C262.301 133.758 262.184 133.259 261.951 132.82C261.718 132.381 261.391 132.045 260.971 131.812C260.56 131.569 260.094 131.448 259.571 131.448C259.048 131.448 258.577 131.569 258.157 131.812C257.746 132.045 257.42 132.381 257.177 132.82C256.944 133.259 256.827 133.758 256.827 134.318C256.827 134.878 256.944 135.377 257.177 135.816C257.42 136.255 257.746 136.595 258.157 136.838C258.577 137.071 259.048 137.188 259.571 137.188ZM271.628 134.724H270.032V138H269.038V134.724H267.442L265.188 138H263.998L266.644 134.206L264.208 130.636H265.286L267.442 133.87H269.038V130.636H270.032V133.87H271.628L273.798 130.636H274.876L272.44 134.22L275.086 138H273.896L271.628 134.724ZM283.922 137.132V139.778H282.984V138H276.39V139.778H275.452V137.132H275.872C276.367 137.104 276.703 136.74 276.88 136.04C277.058 135.34 277.179 134.36 277.244 133.1L277.342 130.636H282.774V137.132H283.922ZM278.154 133.156C278.108 134.201 278.019 135.065 277.888 135.746C277.758 136.418 277.524 136.88 277.188 137.132H281.78V131.518H278.238L278.154 133.156ZM289.023 133.24C289.947 133.249 290.647 133.455 291.123 133.856C291.609 134.257 291.851 134.836 291.851 135.592C291.851 136.376 291.59 136.978 291.067 137.398C290.554 137.818 289.807 138.023 288.827 138.014L285.859 138V130.636H286.853V133.212L289.023 133.24ZM288.771 137.258C289.453 137.267 289.966 137.132 290.311 136.852C290.666 136.563 290.843 136.143 290.843 135.592C290.843 135.051 290.671 134.649 290.325 134.388C289.98 134.127 289.462 133.991 288.771 133.982L286.853 133.954V137.23L288.771 137.258Z" fill="black"/>
<path d="M358.07 112.636V120H357.16V117.564H354.85H354.57L352.862 120H351.784L353.618 117.424C353.049 117.265 352.61 116.995 352.302 116.612C351.994 116.229 351.84 115.744 351.84 115.156C351.84 114.335 352.12 113.709 352.68 113.28C353.24 112.851 354.005 112.636 354.976 112.636H358.07ZM352.848 115.184C352.848 116.276 353.543 116.822 354.934 116.822H357.16V113.518H355.004C353.567 113.518 352.848 114.073 352.848 115.184ZM363.984 120.07C363.256 120.07 362.603 119.911 362.024 119.594C361.455 119.277 361.007 118.833 360.68 118.264C360.354 117.685 360.19 117.037 360.19 116.318C360.19 115.599 360.354 114.955 360.68 114.386C361.007 113.817 361.455 113.373 362.024 113.056C362.603 112.739 363.256 112.58 363.984 112.58C364.619 112.58 365.184 112.706 365.678 112.958C366.182 113.201 366.579 113.56 366.868 114.036L366.126 114.54C365.884 114.176 365.576 113.905 365.202 113.728C364.829 113.541 364.423 113.448 363.984 113.448C363.452 113.448 362.972 113.569 362.542 113.812C362.122 114.045 361.791 114.381 361.548 114.82C361.315 115.259 361.198 115.758 361.198 116.318C361.198 116.887 361.315 117.391 361.548 117.83C361.791 118.259 362.122 118.595 362.542 118.838C362.972 119.071 363.452 119.188 363.984 119.188C364.423 119.188 364.829 119.099 365.202 118.922C365.576 118.745 365.884 118.474 366.126 118.11L366.868 118.614C366.579 119.09 366.182 119.454 365.678 119.706C365.174 119.949 364.61 120.07 363.984 120.07ZM368.793 112.636H369.787V115.898H374.421V112.636H375.415V120H374.421V116.752H369.787V120H368.793V112.636ZM381.278 120.07C380.569 120.07 379.93 119.911 379.36 119.594C378.791 119.267 378.343 118.819 378.016 118.25C377.69 117.681 377.526 117.037 377.526 116.318C377.526 115.599 377.69 114.955 378.016 114.386C378.343 113.817 378.791 113.373 379.36 113.056C379.93 112.739 380.569 112.58 381.278 112.58C381.988 112.58 382.627 112.739 383.196 113.056C383.766 113.373 384.209 113.817 384.526 114.386C384.853 114.955 385.016 115.599 385.016 116.318C385.016 117.037 384.853 117.681 384.526 118.25C384.209 118.819 383.766 119.267 383.196 119.594C382.627 119.911 381.988 120.07 381.278 120.07ZM381.278 119.188C381.801 119.188 382.268 119.071 382.678 118.838C383.098 118.595 383.425 118.255 383.658 117.816C383.892 117.377 384.008 116.878 384.008 116.318C384.008 115.758 383.892 115.259 383.658 114.82C383.425 114.381 383.098 114.045 382.678 113.812C382.268 113.569 381.801 113.448 381.278 113.448C380.756 113.448 380.284 113.569 379.864 113.812C379.454 114.045 379.127 114.381 378.884 114.82C378.651 115.259 378.534 115.758 378.534 116.318C378.534 116.878 378.651 117.377 378.884 117.816C379.127 118.255 379.454 118.595 379.864 118.838C380.284 119.071 380.756 119.188 381.278 119.188Z" fill="black"/>
<path d="M430.022 112.636V120H429.028V113.518H424.408V120H423.414V112.636H430.022ZM435.382 112.58C436.343 112.58 437.08 112.823 437.594 113.308C438.107 113.784 438.364 114.493 438.364 115.436V120H437.412V118.852C437.188 119.235 436.856 119.533 436.418 119.748C435.988 119.963 435.475 120.07 434.878 120.07C434.056 120.07 433.403 119.874 432.918 119.482C432.432 119.09 432.19 118.572 432.19 117.928C432.19 117.303 432.414 116.799 432.862 116.416C433.319 116.033 434.042 115.842 435.032 115.842H437.37V115.394C437.37 114.759 437.192 114.279 436.838 113.952C436.483 113.616 435.965 113.448 435.284 113.448C434.817 113.448 434.369 113.527 433.94 113.686C433.51 113.835 433.142 114.045 432.834 114.316L432.386 113.574C432.759 113.257 433.207 113.014 433.73 112.846C434.252 112.669 434.803 112.58 435.382 112.58ZM435.032 119.286C435.592 119.286 436.072 119.16 436.474 118.908C436.875 118.647 437.174 118.273 437.37 117.788V116.584H435.06C433.8 116.584 433.17 117.023 433.17 117.9C433.17 118.329 433.333 118.67 433.66 118.922C433.986 119.165 434.444 119.286 435.032 119.286ZM444.09 120.07C443.362 120.07 442.708 119.911 442.13 119.594C441.56 119.277 441.112 118.833 440.786 118.264C440.459 117.685 440.296 117.037 440.296 116.318C440.296 115.599 440.459 114.955 440.786 114.386C441.112 113.817 441.56 113.373 442.13 113.056C442.708 112.739 443.362 112.58 444.09 112.58C444.724 112.58 445.289 112.706 445.784 112.958C446.288 113.201 446.684 113.56 446.974 114.036L446.232 114.54C445.989 114.176 445.681 113.905 445.308 113.728C444.934 113.541 444.528 113.448 444.09 113.448C443.558 113.448 443.077 113.569 442.648 113.812C442.228 114.045 441.896 114.381 441.654 114.82C441.42 115.259 441.304 115.758 441.304 116.318C441.304 116.887 441.42 117.391 441.654 117.83C441.896 118.259 442.228 118.595 442.648 118.838C443.077 119.071 443.558 119.188 444.09 119.188C444.528 119.188 444.934 119.099 445.308 118.922C445.681 118.745 445.989 118.474 446.232 118.11L446.974 118.614C446.684 119.09 446.288 119.454 445.784 119.706C445.28 119.949 444.715 120.07 444.09 120.07ZM457.13 112.636V120H456.22V114.176L453.238 119.104H452.79L449.808 114.162V120H448.898V112.636H449.906L453.028 117.942L456.206 112.636H457.13ZM466.217 112.636L462.535 120.882C462.236 121.573 461.891 122.063 461.499 122.352C461.107 122.641 460.636 122.786 460.085 122.786C459.73 122.786 459.399 122.73 459.091 122.618C458.783 122.506 458.517 122.338 458.293 122.114L458.755 121.372C459.128 121.745 459.576 121.932 460.099 121.932C460.435 121.932 460.72 121.839 460.953 121.652C461.196 121.465 461.42 121.148 461.625 120.7L461.947 119.986L458.657 112.636H459.693L462.465 118.894L465.237 112.636H466.217ZM471.56 112.58C472.25 112.58 472.876 112.739 473.436 113.056C473.996 113.364 474.434 113.803 474.752 114.372C475.069 114.941 475.228 115.59 475.228 116.318C475.228 117.055 475.069 117.709 474.752 118.278C474.434 118.847 473.996 119.291 473.436 119.608C472.885 119.916 472.26 120.07 471.56 120.07C470.962 120.07 470.421 119.949 469.936 119.706C469.46 119.454 469.068 119.09 468.76 118.614V122.716H467.766V112.636H468.718V114.092C469.016 113.607 469.408 113.233 469.894 112.972C470.388 112.711 470.944 112.58 471.56 112.58ZM471.49 119.188C472.003 119.188 472.47 119.071 472.89 118.838C473.31 118.595 473.636 118.255 473.87 117.816C474.112 117.377 474.234 116.878 474.234 116.318C474.234 115.758 474.112 115.263 473.87 114.834C473.636 114.395 473.31 114.055 472.89 113.812C472.47 113.569 472.003 113.448 471.49 113.448C470.967 113.448 470.496 113.569 470.076 113.812C469.665 114.055 469.338 114.395 469.096 114.834C468.862 115.263 468.746 115.758 468.746 116.318C468.746 116.878 468.862 117.377 469.096 117.816C469.338 118.255 469.665 118.595 470.076 118.838C470.496 119.071 470.967 119.188 471.49 119.188ZM477.363 112.636H478.357V115.898H482.991V112.636H483.985V120H482.991V116.752H478.357V120H477.363V112.636ZM489.848 120.07C489.139 120.07 488.5 119.911 487.93 119.594C487.361 119.267 486.913 118.819 486.586 118.25C486.26 117.681 486.096 117.037 486.096 116.318C486.096 115.599 486.26 114.955 486.586 114.386C486.913 113.817 487.361 113.373 487.93 113.056C488.5 112.739 489.139 112.58 489.848 112.58C490.558 112.58 491.197 112.739 491.766 113.056C492.336 113.373 492.779 113.817 493.096 114.386C493.423 114.955 493.586 115.599 493.586 116.318C493.586 117.037 493.423 117.681 493.096 118.25C492.779 118.819 492.336 119.267 491.766 119.594C491.197 119.911 490.558 120.07 489.848 120.07ZM489.848 119.188C490.371 119.188 490.838 119.071 491.248 118.838C491.668 118.595 491.995 118.255 492.228 117.816C492.462 117.377 492.578 116.878 492.578 116.318C492.578 115.758 492.462 115.259 492.228 114.82C491.995 114.381 491.668 114.045 491.248 113.812C490.838 113.569 490.371 113.448 489.848 113.448C489.326 113.448 488.854 113.569 488.434 113.812C488.024 114.045 487.697 114.381 487.454 114.82C487.221 115.259 487.104 115.758 487.104 116.318C487.104 116.878 487.221 117.377 487.454 117.816C487.697 118.255 488.024 118.595 488.434 118.838C488.854 119.071 489.326 119.188 489.848 119.188Z" fill="black"/>
<path d="M375.009 90.5016C381.358 90.5016 386.506 85.3547 386.506 79.0058C386.506 72.6568 381.358 67.5099 375.009 67.5099C368.66 67.5099 363.513 72.6568 363.513 79.0058C363.513 85.3547 368.66 90.5016 375.009 90.5016Z" fill="url(#paint7_linear_2_522)"/>
<path d="M385.813 57.4005L383.112 63.9232C382.231 66.0477 379.044 64.7279 379.925 62.6035L382.627 56.0808C383.507 53.9564 386.694 55.2761 385.813 57.4005ZM370.073 95.3988L367.371 101.922C366.49 104.046 363.304 102.726 364.184 100.602L366.886 94.0791C367.766 91.9546 370.953 93.2743 370.073 95.3988ZM397.921 71.3748L391.398 74.0763C389.274 74.9569 387.954 71.7703 390.079 70.8897L396.602 68.1882C398.726 67.3076 400.046 70.4942 397.921 71.3748ZM359.921 87.1149L353.398 89.8164C351.274 90.697 349.954 87.5104 352.079 86.6298L358.602 83.9283C360.726 83.0477 362.046 86.2343 359.921 87.1149ZM396.602 89.8187L390.079 87.1172C387.954 86.2366 389.274 83.05 391.398 83.9306L397.921 86.6321C400.046 87.5127 398.726 90.6993 396.602 89.8187ZM358.602 74.0786L352.079 71.3771C349.954 70.4965 351.274 67.3099 353.398 68.1905L359.921 70.892C362.046 71.7726 360.726 74.9592 358.602 74.0786ZM367.369 56.0785L370.07 62.6012C370.951 64.7256 367.764 66.0454 366.884 63.9209L364.182 57.3982C363.301 55.2738 366.488 53.9541 367.369 56.0785ZM383.11 94.0768L385.811 100.599C386.692 102.724 383.505 104.044 382.624 101.919L379.923 95.3965C379.042 93.2721 382.229 91.9523 383.11 94.0768Z" fill="#FFB300"/>
<path opacity="0.32" d="M460 83C463.314 83 466 80.314 466 77C466 73.686 463.314 71 460 71H459.938C459.978 70.672 460 70.338 460 70C460 65.582 456.418 62 452 62C448.5 62 445.524 64.248 444.44 67.378C443.67 67.132 442.852 67 442 67C437.582 67 434 70.582 434 75C434 79.418 437.582 83 442 83C442.69 83 443.36 82.912 444 82.748V83H460Z" fill="#73A5E6"/>
<path d="M434 93C429.582 93 426 89.418 426 85C426 80.582 429.582 77 434 77C434.834 77 435.636 77.128 436.392 77.364C437.518 73.68 440.946 71 445 71C449.97 71 454 75.03 454 80C454 80.47 453.964 80.93 453.894 81.38C454.55 81.134 455.258 81 456 81C459.314 81 462 83.686 462 87C462 90.314 459.314 93 456 93H434Z" fill="url(#paint8_linear_2_522)"/>
<path d="M436 80C436 84.97 440.03 89 445 89C449.502 89 453.23 85.696 453.894 81.38C454.55 81.134 455.258 81 456 81C459.314 81 462 83.686 462 87C462 90.314 459.314 93 456 93H434C429.582 93 426 89.418 426 85C426 80.582 429.582 77 434 77C434.834 77 435.636 77.128 436.392 77.364C436.136 78.198 436 79.082 436 80Z" fill="url(#paint9_radial_2_522)"/>
<defs>
<filter id="filter0_d_2_522" x="0" y="0" width="542" height="182" filterUnits="userSpaceOnUse" color-interpolation-filters="sRGB">
<feFlood flood-opacity="0" result="BackgroundImageFix"/>
<feColorMatrix in="SourceAlpha" type="matrix" values="0 0 0 0 0 0 0 0 0 0 0 0 0 0 0 0 0 0 127 0" result="hardAlpha"/>
<feMorphology radius="3" operator="erode" in="SourceAlpha" result="effect1_dropShadow_2_522"/>
<feOffset dx="2" dy="5"/>
<feGaussianBlur stdDeviation="12.5"/>
<feComposite in2="hardAlpha" operator="out"/>
<feColorMatrix type="matrix" values="0 0 0 0 0.704167 0 0 0 0 0.704167 0 0 0 0 0.704167 0 0 0 0.25 0"/>
<feBlend mode="normal" in2="BackgroundImageFix" result="effect1_dropShadow_2_522"/>
<feBlend mode="normal" in="SourceGraphic" in2="effect1_dropShadow_2_522" result="shape"/>
</filter>
<linearGradient id="paint0_linear_2_522" x1="72" y1="61" x2="72" y2="83" gradientUnits="userSpaceOnUse">
<stop stop-color="#9FC7FF"/>
<stop offset="1" stop-color="#9BC1F5"/>
</linearGradient>
<radialGradient id="paint1_radial_2_522" cx="0" cy="0" r="1" gradientUnits="userSpaceOnUse" gradientTransform="translate(58.7539 30.3034) rotate(-90) scale(20.9574 6.69705)">
<stop stop-color="#486DA8" stop-opacity="0.4"/>
<stop offset="1" stop-color="#486DA8" stop-opacity="0"/>
</radialGradient>
<linearGradient id="paint2_linear_2_522" x1="159" y1="63" x2="147.783" y2="74.0723" gradientUnits="userSpaceOnUse">
<stop stop-color="#FFB301"/>
<stop offset="1" stop-color="#FFC533"/>
</linearGradient>
<linearGradient id="paint3_linear_2_522" x1="141" y1="67" x2="141" y2="89" gradientUnits="userSpaceOnUse">
<stop stop-color="#9FC7FF"/>
<stop offset="1" stop-color="#9BC1F5"/>
</linearGradient>
<radialGradient id="paint4_radial_2_522" cx="0" cy="0" r="1" gradientUnits="userSpaceOnUse" gradientTransform="translate(134.068 32.3034) rotate(-90) scale(20.9574 6.69705)">
<stop stop-color="#486DA8" stop-opacity="0.4"/>
<stop offset="1" stop-color="#486DA8" stop-opacity="0"/>
</radialGradient>
<linearGradient id="paint5_linear_2_522" x1="274" y1="61" x2="274" y2="83" gradientUnits="userSpaceOnUse">
<stop stop-color="#9FC7FF"/>
<stop offset="1" stop-color="#9BC1F5"/>
</linearGradient>
<radialGradient id="paint6_radial_2_522" cx="0" cy="0" r="1" gradientUnits="userSpaceOnUse" gradientTransform="translate(260.754 30.3034) rotate(-90) scale(20.9574 6.69705)">
<stop stop-color="#486DA8" stop-opacity="0.4"/>
<stop offset="1" stop-color="#486DA8" stop-opacity="0"/>
</radialGradient>
<linearGradient id="paint7_linear_2_522" x1="375.009" y1="67.5099" x2="375.009" y2="90.1951" gradientUnits="userSpaceOnUse">
<stop stop-color="#FFC227"/>
<stop offset="1" stop-color="#FFB300"/>
</linearGradient>
<linearGradient id="paint8_linear_2_522" x1="444" y1="71" x2="444" y2="93" gradientUnits="userSpaceOnUse">
<stop stop-color="#9FC7FF"/>
<stop offset="1" stop-color="#9BC1F5"/>
</linearGradient>
<radialGradient id="paint9_radial_2_522" cx="0" cy="0" r="1" gradientUnits="userSpaceOnUse" gradientTransform="translate(439.944 32.3034) rotate(-90) scale(20.9574 6.69705)">
<stop stop-color="#486DA8" stop-opacity="0.4"/>
<stop offset="1" stop-color="#486DA8" stop-opacity="0"/>
</radialGradient>
</defs>
</svg>
